<svg width="14" height="10" viewBox="0 0 14 10" fill="none" xmlns="http://www.w3.org/2000/svg">
<path d="M12.5 5L12.8536 5.35355L13.2071 5L12.8536 4.64645L12.5 5ZM0.5 4.5C0.223857 4.5 -3.73832e-07 4.72386 -3.49691e-07 5C-3.2555e-07 5.27614 0.223858 5.5 0.5 5.5L0.5 4.5ZM8.85355 9.35355L12.8536 5.35355L12.1464 4.64645L8.14645 8.64645L8.85355 9.35355ZM12.8536 4.64645L8.85355 0.646447L8.14645 1.35355L12.1464 5.35355L12.8536 4.64645ZM12.5 4.5L0.5 4.5L0.5 5.5L12.5 5.5L12.5 4.5Z" fill="white"/>
</svg>
