<svg width="185" height="57" viewBox="0 0 185 57" fill="none" xmlns="http://www.w3.org/2000/svg">
<rect x="0.592285" y="10.4014" width="184" height="46" rx="23" fill="#7C46C2"/>
<path d="M29.4482 38.6172C28.6188 38.6172 27.9015 38.4225 27.2964 38.0332C26.6912 37.6439 26.2236 37.0916 25.8936 36.3765C25.5677 35.6613 25.4048 34.8128 25.4048 33.8311V33.8184C25.4048 32.8324 25.5677 31.9818 25.8936 31.2666C26.2236 30.5514 26.6891 29.9992 27.29 29.6099C27.8952 29.2205 28.6125 29.0259 29.4419 29.0259C30.0851 29.0259 30.6691 29.1528 31.1938 29.4067C31.7228 29.6564 32.1587 30.0055 32.5015 30.4541C32.8442 30.8984 33.0601 31.4126 33.1489 31.9966L33.1426 32.0093H31.9937L31.9873 31.9966C31.8857 31.603 31.7144 31.2645 31.4731 30.981C31.2319 30.6932 30.9378 30.471 30.5908 30.3145C30.248 30.1579 29.8651 30.0796 29.4419 30.0796C28.8579 30.0796 28.3501 30.2319 27.9185 30.5366C27.491 30.8413 27.161 31.2729 26.9282 31.8315C26.6955 32.3901 26.5791 33.0524 26.5791 33.8184V33.8311C26.5791 34.5928 26.6955 35.2529 26.9282 35.8115C27.161 36.3701 27.491 36.8018 27.9185 37.1064C28.3501 37.4111 28.86 37.5635 29.4482 37.5635C29.8757 37.5635 30.2629 37.4958 30.6099 37.3604C30.9569 37.2207 31.2489 37.0239 31.4858 36.77C31.7228 36.5119 31.8879 36.2072 31.981 35.856L31.9937 35.8433H33.1489V35.856C33.0474 36.4146 32.8273 36.9012 32.4888 37.3159C32.1502 37.7264 31.7207 38.0459 31.2002 38.2744C30.6839 38.5029 30.0999 38.6172 29.4482 38.6172ZM34.9897 38.4014V28.8418H36.0942V32.5869H36.1958C36.3693 32.223 36.619 31.9416 36.9448 31.7427C37.2707 31.5396 37.6854 31.438 38.189 31.438C38.701 31.438 39.1348 31.5374 39.4902 31.7363C39.8457 31.931 40.1165 32.2166 40.3027 32.5933C40.4889 32.9699 40.582 33.429 40.582 33.9707V38.4014H39.4775V34.2373C39.4775 33.6195 39.3464 33.1624 39.084 32.8662C38.8258 32.5658 38.4238 32.4155 37.8779 32.4155C37.514 32.4155 37.1987 32.4938 36.9321 32.6504C36.6655 32.807 36.4582 33.0291 36.3101 33.3169C36.1662 33.6047 36.0942 33.9495 36.0942 34.3516V38.4014H34.9897ZM44.4604 38.522C44.0288 38.522 43.6395 38.4395 43.2925 38.2744C42.9497 38.1094 42.6768 37.8745 42.4736 37.5698C42.2747 37.2651 42.1753 36.9054 42.1753 36.4907V36.478C42.1753 36.0718 42.2726 35.7248 42.4673 35.437C42.6619 35.145 42.9455 34.9165 43.3179 34.7515C43.6903 34.5864 44.141 34.4891 44.6699 34.4595L47.1836 34.3071V35.1895L44.8032 35.3418C44.2827 35.3714 43.9019 35.4793 43.6606 35.6655C43.4237 35.8517 43.3052 36.1141 43.3052 36.4526V36.4653C43.3052 36.8123 43.4364 37.0832 43.6987 37.2778C43.9611 37.4683 44.2912 37.5635 44.689 37.5635C45.0656 37.5635 45.3999 37.4894 45.6919 37.3413C45.9839 37.189 46.2124 36.9837 46.3774 36.7256C46.5467 36.4674 46.6313 36.1755 46.6313 35.8496V33.7168C46.6313 33.2936 46.5023 32.972 46.2441 32.752C45.9902 32.5277 45.6073 32.4155 45.0952 32.4155C44.6847 32.4155 44.3483 32.4896 44.0859 32.6377C43.8236 32.7816 43.6479 32.9868 43.5591 33.2534L43.5527 33.2725H42.4482L42.4546 33.2344C42.5138 32.8747 42.6619 32.5615 42.8989 32.2949C43.1401 32.0241 43.4512 31.8146 43.832 31.6665C44.2129 31.5142 44.6466 31.438 45.1333 31.438C45.6919 31.438 46.1637 31.529 46.5488 31.7109C46.9382 31.8929 47.2323 32.1553 47.4312 32.498C47.6343 32.8366 47.7358 33.2428 47.7358 33.7168V38.4014H46.6313V37.3921H46.5298C46.3859 37.6333 46.2103 37.8385 46.0029 38.0078C45.7998 38.1771 45.5692 38.3062 45.311 38.395C45.0529 38.4797 44.7694 38.522 44.4604 38.522ZM52.1855 38.4521C51.4831 38.4521 50.9731 38.3104 50.6558 38.0269C50.3426 37.7433 50.186 37.2757 50.186 36.624V32.4727H49.1069V31.5586H50.186V29.7876H51.3286V31.5586H52.8267V32.4727H51.3286V36.3447C51.3286 36.7467 51.4048 37.0366 51.5571 37.2144C51.7095 37.3879 51.9634 37.4746 52.3188 37.4746C52.4162 37.4746 52.4987 37.4725 52.5664 37.4683C52.6383 37.464 52.7251 37.4577 52.8267 37.4492V38.3887C52.7209 38.4056 52.6151 38.4204 52.5093 38.4331C52.4035 38.4458 52.2956 38.4521 52.1855 38.4521ZM59.4536 38.4014L57.5366 31.5586H58.6411L59.9868 37.0303H60.0884L61.6182 31.5586H62.6655L64.1953 37.0303H64.2969L65.6426 31.5586H66.7407L64.8237 38.4014H63.7129L62.1831 33.1074H62.0815L60.5581 38.4014H59.4536ZM68.2261 38.4014V31.5586H69.3306V38.4014H68.2261ZM68.7847 30.2383C68.5773 30.2383 68.3975 30.1642 68.2451 30.0161C68.097 29.8638 68.0229 29.6839 68.0229 29.4766C68.0229 29.265 68.097 29.0851 68.2451 28.937C68.3975 28.7889 68.5773 28.7148 68.7847 28.7148C68.9963 28.7148 69.1761 28.7889 69.3242 28.937C69.4723 29.0851 69.5464 29.265 69.5464 29.4766C69.5464 29.6839 69.4723 29.8638 69.3242 30.0161C69.1761 30.1642 68.9963 30.2383 68.7847 30.2383ZM73.8438 38.4521C73.1413 38.4521 72.6313 38.3104 72.314 38.0269C72.0008 37.7433 71.8442 37.2757 71.8442 36.624V32.4727H70.7651V31.5586H71.8442V29.7876H72.9868V31.5586H74.4849V32.4727H72.9868V36.3447C72.9868 36.7467 73.063 37.0366 73.2153 37.2144C73.3677 37.3879 73.6216 37.4746 73.9771 37.4746C74.0744 37.4746 74.1569 37.4725 74.2246 37.4683C74.2965 37.464 74.3833 37.4577 74.4849 37.4492V38.3887C74.3791 38.4056 74.2733 38.4204 74.1675 38.4331C74.0617 38.4458 73.9538 38.4521 73.8438 38.4521ZM76.1987 38.4014V28.8418H77.3032V32.5869H77.4048C77.5783 32.223 77.828 31.9416 78.1538 31.7427C78.4797 31.5396 78.8944 31.438 79.3979 31.438C79.91 31.438 80.3438 31.5374 80.6992 31.7363C81.0547 31.931 81.3255 32.2166 81.5117 32.5933C81.6979 32.9699 81.791 33.429 81.791 33.9707V38.4014H80.6865V34.2373C80.6865 33.6195 80.5553 33.1624 80.293 32.8662C80.0348 32.5658 79.6328 32.4155 79.0869 32.4155C78.723 32.4155 78.4077 32.4938 78.1411 32.6504C77.8745 32.807 77.6672 33.0291 77.519 33.3169C77.3752 33.6047 77.3032 33.9495 77.3032 34.3516V38.4014H76.1987ZM89.3257 38.522C88.894 38.522 88.5047 38.4395 88.1577 38.2744C87.8149 38.1094 87.542 37.8745 87.3389 37.5698C87.14 37.2651 87.0405 36.9054 87.0405 36.4907V36.478C87.0405 36.0718 87.1379 35.7248 87.3325 35.437C87.5272 35.145 87.8107 34.9165 88.1831 34.7515C88.5555 34.5864 89.0062 34.4891 89.5352 34.4595L92.0488 34.3071V35.1895L89.6685 35.3418C89.1479 35.3714 88.7671 35.4793 88.5259 35.6655C88.2889 35.8517 88.1704 36.1141 88.1704 36.4526V36.4653C88.1704 36.8123 88.3016 37.0832 88.564 37.2778C88.8263 37.4683 89.1564 37.5635 89.5542 37.5635C89.9308 37.5635 90.2651 37.4894 90.5571 37.3413C90.8491 37.189 91.0776 36.9837 91.2427 36.7256C91.4119 36.4674 91.4966 36.1755 91.4966 35.8496V33.7168C91.4966 33.2936 91.3675 32.972 91.1094 32.752C90.8555 32.5277 90.4725 32.4155 89.9604 32.4155C89.55 32.4155 89.2135 32.4896 88.9512 32.6377C88.6888 32.7816 88.5132 32.9868 88.4243 33.2534L88.418 33.2725H87.3135L87.3198 33.2344C87.3791 32.8747 87.5272 32.5615 87.7642 32.2949C88.0054 32.0241 88.3164 31.8146 88.6973 31.6665C89.0781 31.5142 89.5119 31.438 89.9985 31.438C90.5571 31.438 91.029 31.529 91.4141 31.7109C91.8034 31.8929 92.0975 32.1553 92.2964 32.498C92.4995 32.8366 92.6011 33.2428 92.6011 33.7168V38.4014H91.4966V37.3921H91.395C91.2511 37.6333 91.0755 37.8385 90.8682 38.0078C90.665 38.1771 90.4344 38.3062 90.1763 38.395C89.9181 38.4797 89.6346 38.522 89.3257 38.522ZM102.104 38.6172C101.274 38.6172 100.557 38.4225 99.9517 38.0332C99.3465 37.6439 98.8789 37.0916 98.5488 36.3765C98.223 35.6613 98.0601 34.8128 98.0601 33.8311V33.8184C98.0601 32.8324 98.223 31.9818 98.5488 31.2666C98.8789 30.5514 99.3444 29.9992 99.9453 29.6099C100.55 29.2205 101.268 29.0259 102.097 29.0259C102.74 29.0259 103.324 29.1528 103.849 29.4067C104.378 29.6564 104.814 30.0055 105.157 30.4541C105.5 30.8984 105.715 31.4126 105.804 31.9966L105.798 32.0093H104.649L104.643 31.9966C104.541 31.603 104.37 31.2645 104.128 30.981C103.887 30.6932 103.593 30.471 103.246 30.3145C102.903 30.1579 102.52 30.0796 102.097 30.0796C101.513 30.0796 101.005 30.2319 100.574 30.5366C100.146 30.8413 99.8162 31.2729 99.5835 31.8315C99.3507 32.3901 99.2344 33.0524 99.2344 33.8184V33.8311C99.2344 34.5928 99.3507 35.2529 99.5835 35.8115C99.8162 36.3701 100.146 36.8018 100.574 37.1064C101.005 37.4111 101.515 37.5635 102.104 37.5635C102.531 37.5635 102.918 37.4958 103.265 37.3604C103.612 37.2207 103.904 37.0239 104.141 36.77C104.378 36.5119 104.543 36.2072 104.636 35.856L104.649 35.8433H105.804V35.856C105.703 36.4146 105.483 36.9012 105.144 37.3159C104.806 37.7264 104.376 38.0459 103.855 38.2744C103.339 38.5029 102.755 38.6172 102.104 38.6172ZM110.394 38.522C109.746 38.522 109.185 38.3802 108.711 38.0967C108.242 37.8089 107.878 37.4006 107.62 36.8716C107.366 36.3426 107.239 35.7142 107.239 34.9863V34.9736C107.239 34.2415 107.366 33.611 107.62 33.082C107.878 32.5531 108.242 32.1468 108.711 31.8633C109.185 31.5798 109.746 31.438 110.394 31.438C111.045 31.438 111.606 31.5798 112.076 31.8633C112.545 32.1468 112.907 32.5531 113.161 33.082C113.419 33.611 113.548 34.2415 113.548 34.9736V34.9863C113.548 35.7142 113.419 36.3426 113.161 36.8716C112.907 37.4006 112.545 37.8089 112.076 38.0967C111.606 38.3802 111.045 38.522 110.394 38.522ZM110.394 37.5444C110.825 37.5444 111.191 37.4429 111.492 37.2397C111.792 37.0366 112.021 36.7446 112.177 36.3638C112.338 35.9829 112.418 35.5238 112.418 34.9863V34.9736C112.418 34.432 112.338 33.9707 112.177 33.5898C112.021 33.209 111.792 32.9191 111.492 32.7202C111.191 32.5171 110.825 32.4155 110.394 32.4155C109.962 32.4155 109.596 32.5171 109.295 32.7202C108.995 32.9191 108.764 33.209 108.604 33.5898C108.447 33.9707 108.369 34.432 108.369 34.9736V34.9863C108.369 35.5238 108.447 35.9829 108.604 36.3638C108.764 36.7446 108.995 37.0366 109.295 37.2397C109.596 37.4429 109.962 37.5444 110.394 37.5444ZM115.262 38.4014V31.5586H116.367V32.5869H116.468C116.642 32.223 116.891 31.9416 117.217 31.7427C117.543 31.5396 117.958 31.438 118.461 31.438C119.232 31.438 119.822 31.658 120.232 32.0981C120.647 32.534 120.854 33.1582 120.854 33.9707V38.4014H119.75V34.2373C119.75 33.6195 119.619 33.1624 119.356 32.8662C119.098 32.5658 118.696 32.4155 118.15 32.4155C117.786 32.4155 117.471 32.4938 117.205 32.6504C116.938 32.807 116.731 33.0291 116.583 33.3169C116.439 33.6047 116.367 33.9495 116.367 34.3516V38.4014H115.262ZM125.653 38.522C125.014 38.522 124.46 38.376 123.99 38.084C123.521 37.792 123.157 37.3794 122.898 36.8462C122.64 36.313 122.511 35.6846 122.511 34.9609V34.9482C122.511 34.2373 122.638 33.6195 122.892 33.0947C123.15 32.57 123.514 32.1637 123.984 31.876C124.454 31.584 125.008 31.438 125.647 31.438C126.201 31.438 126.68 31.5353 127.082 31.73C127.484 31.9246 127.805 32.187 128.046 32.5171C128.288 32.8429 128.442 33.209 128.51 33.6152L128.516 33.6533H127.418L127.412 33.6343C127.327 33.2957 127.134 33.008 126.834 32.771C126.534 32.534 126.138 32.4155 125.647 32.4155C125.236 32.4155 124.881 32.5192 124.581 32.7266C124.28 32.9339 124.047 33.228 123.882 33.6089C123.722 33.9855 123.641 34.432 123.641 34.9482V34.9609C123.641 35.4857 123.724 35.9427 123.889 36.332C124.054 36.7171 124.286 37.0155 124.587 37.2271C124.887 37.4386 125.241 37.5444 125.647 37.5444C126.108 37.5444 126.485 37.445 126.777 37.2461C127.069 37.0472 127.278 36.7573 127.405 36.3765L127.418 36.3384L128.51 36.332L128.497 36.4019C128.404 36.8123 128.239 37.1784 128.002 37.5C127.765 37.8174 127.452 38.0671 127.062 38.249C126.673 38.431 126.203 38.522 125.653 38.522ZM130.154 38.4014V31.5586H131.258V38.4014H130.154ZM130.712 30.2383C130.505 30.2383 130.325 30.1642 130.173 30.0161C130.025 29.8638 129.951 29.6839 129.951 29.4766C129.951 29.265 130.025 29.0851 130.173 28.937C130.325 28.7889 130.505 28.7148 130.712 28.7148C130.924 28.7148 131.104 28.7889 131.252 28.937C131.4 29.0851 131.474 29.265 131.474 29.4766C131.474 29.6839 131.4 29.8638 131.252 30.0161C131.104 30.1642 130.924 30.2383 130.712 30.2383ZM136.133 38.522C135.482 38.522 134.921 38.3781 134.451 38.0903C133.986 37.8026 133.626 37.3963 133.372 36.8716C133.122 36.3426 132.998 35.7205 132.998 35.0054V34.999C132.998 34.2923 133.122 33.6724 133.372 33.1392C133.626 32.606 133.984 32.1891 134.445 31.8887C134.906 31.5882 135.446 31.438 136.063 31.438C136.686 31.438 137.219 31.5819 137.663 31.8696C138.112 32.1574 138.454 32.5594 138.691 33.0757C138.933 33.5877 139.053 34.1844 139.053 34.8657V35.2974H133.569V34.415H138.488L137.942 35.2212V34.7832C137.942 34.2458 137.862 33.8035 137.701 33.4565C137.54 33.1095 137.318 32.8514 137.035 32.6821C136.751 32.5086 136.425 32.4219 136.057 32.4219C135.689 32.4219 135.359 32.5129 135.067 32.6948C134.779 32.8726 134.551 33.137 134.381 33.4883C134.212 33.8395 134.127 34.2712 134.127 34.7832V35.2212C134.127 35.7078 134.21 36.1247 134.375 36.4717C134.54 36.8145 134.775 37.0789 135.08 37.2651C135.384 37.4471 135.744 37.5381 136.159 37.5381C136.468 37.5381 136.736 37.4958 136.965 37.4111C137.193 37.3265 137.382 37.2186 137.53 37.0874C137.678 36.9562 137.782 36.8229 137.841 36.6875L137.866 36.6304H138.971L138.958 36.6812C138.899 36.9139 138.793 37.1403 138.641 37.3604C138.493 37.5762 138.3 37.7729 138.063 37.9507C137.826 38.1242 137.545 38.2638 137.219 38.3696C136.897 38.4712 136.535 38.522 136.133 38.522ZM140.767 38.4014V31.5586H141.872V32.5742H141.973C142.104 32.2145 142.326 31.9352 142.64 31.7363C142.953 31.5374 143.34 31.438 143.801 31.438C143.907 31.438 144.011 31.4443 144.112 31.457C144.218 31.4655 144.299 31.474 144.354 31.4824V32.5552C144.239 32.534 144.127 32.5192 144.017 32.5107C143.911 32.498 143.797 32.4917 143.674 32.4917C143.323 32.4917 143.012 32.5615 142.741 32.7012C142.47 32.8408 142.257 33.0355 142.1 33.2852C141.948 33.5348 141.872 33.8268 141.872 34.1611V38.4014H140.767ZM148.346 40.8135C147.796 40.8135 147.316 40.7352 146.905 40.5786C146.495 40.4263 146.167 40.2083 145.921 39.9248C145.68 39.6455 145.53 39.3197 145.471 38.9473L145.483 38.9409H146.626L146.632 38.9473C146.692 39.2054 146.869 39.417 147.166 39.582C147.462 39.7513 147.855 39.8359 148.346 39.8359C148.96 39.8359 149.438 39.6963 149.781 39.417C150.128 39.1419 150.301 38.7526 150.301 38.249V36.8652H150.2C150.056 37.1149 149.876 37.3286 149.66 37.5063C149.444 37.6841 149.201 37.8195 148.93 37.9126C148.659 38.0015 148.367 38.0459 148.054 38.0459C147.466 38.0459 146.956 37.9062 146.524 37.627C146.097 37.3434 145.767 36.9541 145.534 36.459C145.301 35.9639 145.185 35.3968 145.185 34.7578V34.7451C145.185 34.1061 145.301 33.5391 145.534 33.0439C145.771 32.5446 146.105 32.1532 146.537 31.8696C146.969 31.5819 147.483 31.438 148.08 31.438C148.401 31.438 148.697 31.4888 148.968 31.5903C149.239 31.6919 149.478 31.8358 149.686 32.022C149.897 32.2082 150.073 32.4303 150.212 32.6885H150.289V31.5586H151.393V38.3062C151.393 38.814 151.268 39.2562 151.019 39.6328C150.773 40.0094 150.422 40.2993 149.965 40.5024C149.508 40.7098 148.968 40.8135 148.346 40.8135ZM148.295 37.0684C148.719 37.0684 149.08 36.971 149.381 36.7764C149.686 36.5775 149.918 36.3045 150.079 35.9575C150.244 35.6105 150.327 35.2106 150.327 34.7578V34.7451C150.327 34.2923 150.244 33.8903 150.079 33.5391C149.918 33.1878 149.686 32.9128 149.381 32.7139C149.08 32.515 148.719 32.4155 148.295 32.4155C147.872 32.4155 147.513 32.515 147.216 32.7139C146.924 32.9128 146.7 33.1878 146.543 33.5391C146.391 33.8903 146.315 34.2923 146.315 34.7451V34.7578C146.315 35.2106 146.391 35.6105 146.543 35.9575C146.7 36.3045 146.924 36.5775 147.216 36.7764C147.513 36.971 147.872 37.0684 148.295 37.0684ZM156.243 38.522C155.591 38.522 155.03 38.3781 154.561 38.0903C154.095 37.8026 153.735 37.3963 153.481 36.8716C153.232 36.3426 153.107 35.7205 153.107 35.0054V34.999C153.107 34.2923 153.232 33.6724 153.481 33.1392C153.735 32.606 154.093 32.1891 154.554 31.8887C155.015 31.5882 155.555 31.438 156.173 31.438C156.795 31.438 157.328 31.5819 157.772 31.8696C158.221 32.1574 158.564 32.5594 158.801 33.0757C159.042 33.5877 159.163 34.1844 159.163 34.8657V35.2974H153.678V34.415H158.598L158.052 35.2212V34.7832C158.052 34.2458 157.971 33.8035 157.811 33.4565C157.65 33.1095 157.428 32.8514 157.144 32.6821C156.861 32.5086 156.535 32.4219 156.167 32.4219C155.798 32.4219 155.468 32.5129 155.176 32.6948C154.889 32.8726 154.66 33.137 154.491 33.4883C154.321 33.8395 154.237 34.2712 154.237 34.7832V35.2212C154.237 35.7078 154.319 36.1247 154.484 36.4717C154.649 36.8145 154.884 37.0789 155.189 37.2651C155.494 37.4471 155.853 37.5381 156.268 37.5381C156.577 37.5381 156.846 37.4958 157.074 37.4111C157.303 37.3265 157.491 37.2186 157.639 37.0874C157.787 36.9562 157.891 36.8229 157.95 36.6875L157.976 36.6304H159.08L159.067 36.6812C159.008 36.9139 158.902 37.1403 158.75 37.3604C158.602 37.5762 158.409 37.7729 158.172 37.9507C157.935 38.1242 157.654 38.2638 157.328 38.3696C157.007 38.4712 156.645 38.522 156.243 38.522Z" fill="white"/>
<path d="M138.442 11.1411L152.643 11.072L149.624 0.80957L160.31 11.1411V13.0194H138.442V11.1411Z" fill="#7C46C2"/>
</svg>
