<svg width="25" height="25" viewBox="0 0 25 25" fill="none" xmlns="http://www.w3.org/2000/svg">
<path fill-rule="evenodd" clip-rule="evenodd" d="M2.29351 10.3042L10.3943 2.20342C11.5363 1.06136 13.388 1.06136 14.53 2.20342L22.6308 10.3042C23.7728 11.4462 23.7728 13.2979 22.6308 14.4399L14.53 22.5407C13.388 23.6828 11.5363 23.6828 10.3943 22.5407L2.2935 14.4399C1.15145 13.2979 1.15145 11.4462 2.29351 10.3042ZM1.60421 15.1292C0.0814721 13.6065 0.0814741 11.1376 1.60421 9.61489L9.70498 1.51412C11.2277 -0.00861621 13.6966 -0.00861359 15.2193 1.51413L23.3201 9.61489C24.8428 11.1376 24.8428 13.6065 23.3201 15.1292L15.2193 23.23C13.6966 24.7527 11.2277 24.7527 9.70498 23.23L1.60421 15.1292ZM10.9352 17.3651H14.0372C14.3487 17.3651 14.6012 17.1126 14.6012 16.8011C14.6012 16.4896 14.3487 16.2371 14.0372 16.2371H10.9352C9.53345 16.2371 8.39713 15.1007 8.39713 13.699C8.39713 12.2973 9.53345 11.161 10.9352 11.161L15.4956 11.161L13.6384 13.0182L14.436 13.8158L17.6549 10.597L14.436 7.37812L13.6384 8.17575L15.4956 10.033L10.9352 10.033C8.91047 10.033 7.26912 11.6743 7.26912 13.699C7.26912 15.7237 8.91047 17.3651 10.9352 17.3651Z" fill="white"/>
</svg>
