<svg width="11" height="12" viewBox="0 0 11 12" fill="none" xmlns="http://www.w3.org/2000/svg">
<path fill-rule="evenodd" clip-rule="evenodd" d="M0.687502 5.25C0.687502 3.16167 2.38043 1.46875 4.46876 1.46875C6.55709 1.46875 8.25002 3.16167 8.25002 5.25C8.25002 7.33832 6.55709 9.03125 4.46876 9.03125C2.38043 9.03125 0.687502 7.33832 0.687502 5.25ZM4.46876 0.78125C2.00073 0.78125 0 2.78198 0 5.25C0 7.71802 2.00073 9.71874 4.46876 9.71874C5.57904 9.71874 6.59475 9.31384 7.37628 8.64364L10.4132 11.6806C10.5474 11.8148 10.7651 11.8148 10.8993 11.6806C11.0336 11.5463 11.0336 11.3287 10.8993 11.1944L7.86241 8.15751C8.53262 7.37598 8.93752 6.36027 8.93752 5.25C8.93752 2.78198 6.93679 0.78125 4.46876 0.78125Z" fill="#BD1515"/>
</svg>
