<svg width="107" height="38" viewBox="0 0 107 38" fill="none" xmlns="http://www.w3.org/2000/svg">
<path d="M1.53711 17V7.92725H3.604V9.32178H3.74512C3.90007 8.8348 4.17676 8.45573 4.5752 8.18457C4.97917 7.91341 5.47998 7.77783 6.07764 7.77783C6.23258 7.77783 6.38477 7.7889 6.53418 7.81104C6.68913 7.82764 6.81641 7.84977 6.91602 7.87744V9.72852C6.75 9.68978 6.58122 9.66211 6.40967 9.64551C6.24365 9.62337 6.06934 9.6123 5.88672 9.6123C5.42741 9.6123 5.0262 9.69808 4.68311 9.86963C4.34001 10.0412 4.07438 10.2874 3.88623 10.6084C3.69808 10.9238 3.604 11.2974 3.604 11.729V17H1.53711ZM12.2617 17.1826C11.3597 17.1826 10.585 16.9917 9.9375 16.6099C9.29557 16.228 8.80029 15.6857 8.45166 14.9829C8.10303 14.2801 7.92871 13.4473 7.92871 12.4844V12.4761C7.92871 11.5243 8.10026 10.6942 8.44336 9.98584C8.79199 9.27751 9.28451 8.72965 9.9209 8.34229C10.5573 7.94938 11.3044 7.75293 12.1621 7.75293C13.0254 7.75293 13.7669 7.94385 14.3867 8.32568C15.012 8.70199 15.4935 9.23047 15.8311 9.91113C16.1686 10.5918 16.3374 11.3887 16.3374 12.3018V12.9824H8.96631V11.5962H15.3247L14.3452 12.8911V12.0693C14.3452 11.4661 14.2539 10.9653 14.0713 10.5669C13.8887 10.1685 13.6341 9.86963 13.3076 9.67041C12.9867 9.47119 12.6131 9.37158 12.187 9.37158C11.7609 9.37158 11.3818 9.47673 11.0498 9.68701C10.7233 9.89176 10.4632 10.1961 10.2695 10.6001C10.0814 10.9985 9.9873 11.4883 9.9873 12.0693V12.8994C9.9873 13.4583 10.0814 13.937 10.2695 14.3354C10.4577 14.7284 10.7233 15.0327 11.0664 15.2485C11.415 15.4588 11.8273 15.564 12.3032 15.564C12.674 15.564 12.9922 15.5114 13.2578 15.4062C13.529 15.2956 13.7476 15.1655 13.9136 15.0161C14.0796 14.8612 14.1958 14.7145 14.2622 14.5762L14.2871 14.5181H16.2461L16.2295 14.5928C16.1576 14.8861 16.0247 15.1849 15.8311 15.4893C15.6429 15.7881 15.3856 16.0675 15.0591 16.3276C14.7381 16.5822 14.3452 16.7897 13.8804 16.9502C13.4155 17.1051 12.876 17.1826 12.2617 17.1826Z" fill="#BD1515"/>
<path d="M18.4292 17V7.92725H20.4878V17H18.4292ZM19.4668 6.4082C19.1292 6.4082 18.8387 6.28923 18.5952 6.05127C18.3517 5.81331 18.23 5.52832 18.23 5.19629C18.23 4.85319 18.3517 4.56543 18.5952 4.33301C18.8387 4.09505 19.1292 3.97607 19.4668 3.97607C19.8044 3.97607 20.0921 4.09505 20.3301 4.33301C20.5736 4.56543 20.6953 4.85319 20.6953 5.19629C20.6953 5.52832 20.5736 5.81331 20.3301 6.05127C20.0921 6.28923 19.8044 6.4082 19.4668 6.4082ZM23.0361 17V7.92725H25.103V9.32178H25.2441C25.46 8.82926 25.7865 8.44466 26.2236 8.16797C26.6608 7.89128 27.2059 7.75293 27.8589 7.75293C28.8716 7.75293 29.6463 8.04622 30.1831 8.63281C30.7199 9.2194 30.9883 10.0522 30.9883 11.1313V17H28.9214V11.6128C28.9214 10.9045 28.772 10.3732 28.4731 10.019C28.1799 9.66488 27.7205 9.48779 27.0952 9.48779C26.6857 9.48779 26.3315 9.5791 26.0327 9.76172C25.7339 9.94434 25.5042 10.2017 25.3438 10.5337C25.1833 10.8657 25.103 11.2586 25.103 11.7124V17H23.0361ZM36.998 17.0415C35.9577 17.0415 35.2078 16.8506 34.7485 16.4688C34.2892 16.0869 34.0596 15.4616 34.0596 14.5928V9.5293H32.6484V7.92725H34.0596V5.70264H36.1597V7.92725H38.0688V9.5293H36.1597V14.103C36.1597 14.5513 36.2537 14.8805 36.4419 15.0908C36.6356 15.2956 36.9455 15.3979 37.3716 15.3979C37.521 15.3979 37.6427 15.3952 37.7368 15.3896C37.8364 15.3786 37.9471 15.3675 38.0688 15.3564V16.9502C37.925 16.9779 37.759 17 37.5708 17.0166C37.3882 17.0332 37.1973 17.0415 36.998 17.0415ZM43.9375 17.1826C43.0355 17.1826 42.2607 16.9917 41.6133 16.6099C40.9714 16.228 40.4761 15.6857 40.1274 14.9829C39.7788 14.2801 39.6045 13.4473 39.6045 12.4844V12.4761C39.6045 11.5243 39.776 10.6942 40.1191 9.98584C40.4678 9.27751 40.9603 8.72965 41.5967 8.34229C42.2331 7.94938 42.9801 7.75293 43.8379 7.75293C44.7012 7.75293 45.4427 7.94385 46.0625 8.32568C46.6878 8.70199 47.1693 9.23047 47.5068 9.91113C47.8444 10.5918 48.0132 11.3887 48.0132 12.3018V12.9824H40.6421V11.5962H47.0005L46.021 12.8911V12.0693C46.021 11.4661 45.9297 10.9653 45.7471 10.5669C45.5645 10.1685 45.3099 9.86963 44.9834 9.67041C44.6624 9.47119 44.2889 9.37158 43.8628 9.37158C43.4367 9.37158 43.0576 9.47673 42.7256 9.68701C42.3991 9.89176 42.139 10.1961 41.9453 10.6001C41.7572 10.9985 41.6631 11.4883 41.6631 12.0693V12.8994C41.6631 13.4583 41.7572 13.937 41.9453 14.3354C42.1335 14.7284 42.3991 15.0327 42.7422 15.2485C43.0908 15.4588 43.5031 15.564 43.979 15.564C44.3498 15.564 44.668 15.5114 44.9336 15.4062C45.2048 15.2956 45.4233 15.1655 45.5894 15.0161C45.7554 14.8612 45.8716 14.7145 45.938 14.5762L45.9629 14.5181H47.9219L47.9053 14.5928C47.8333 14.8861 47.7005 15.1849 47.5068 15.4893C47.3187 15.7881 47.0614 16.0675 46.7349 16.3276C46.4139 16.5822 46.021 16.7897 45.5562 16.9502C45.0913 17.1051 44.5518 17.1826 43.9375 17.1826ZM50.0801 17V7.92725H52.147V9.32178H52.2881C52.443 8.8348 52.7197 8.45573 53.1182 8.18457C53.5221 7.91341 54.0229 7.77783 54.6206 7.77783C54.7756 7.77783 54.9277 7.7889 55.0771 7.81104C55.2321 7.82764 55.3594 7.84977 55.459 7.87744V9.72852C55.293 9.68978 55.1242 9.66211 54.9526 9.64551C54.7866 9.62337 54.6123 9.6123 54.4297 9.6123C53.9704 9.6123 53.5692 9.69808 53.2261 9.86963C52.883 10.0412 52.6174 10.2874 52.4292 10.6084C52.241 10.9238 52.147 11.2974 52.147 11.729V17H50.0801ZM59.5098 17.1494C58.9398 17.1494 58.4279 17.0387 57.9741 16.8174C57.5259 16.596 57.1717 16.2834 56.9116 15.8794C56.6571 15.4699 56.5298 14.9884 56.5298 14.4351V14.4185C56.5298 13.8817 56.6626 13.4196 56.9282 13.0322C57.1938 12.6393 57.584 12.3322 58.0986 12.1108C58.6133 11.8895 59.2386 11.7594 59.9746 11.7207L63.3281 11.5132V12.8745L60.2651 13.0737C59.6841 13.1069 59.2552 13.2287 58.9785 13.439C58.7018 13.6493 58.5635 13.9425 58.5635 14.3188V14.3354C58.5635 14.7228 58.7101 15.0244 59.0034 15.2402C59.3022 15.4561 59.6813 15.564 60.1406 15.564C60.5557 15.564 60.9264 15.481 61.2529 15.3149C61.5794 15.1489 61.8368 14.9248 62.0249 14.6426C62.2131 14.3548 62.3071 14.0311 62.3071 13.6714V10.7993C62.3071 10.3455 62.1632 9.99967 61.8755 9.76172C61.5877 9.51823 61.1616 9.39648 60.5972 9.39648C60.1268 9.39648 59.7422 9.47949 59.4434 9.64551C59.1445 9.80599 58.9425 10.0356 58.8374 10.3345L58.8291 10.3677H56.8784L56.8867 10.293C56.9531 9.78385 57.1523 9.33838 57.4844 8.95654C57.8164 8.57471 58.2563 8.27865 58.8042 8.06836C59.3521 7.85807 59.9829 7.75293 60.6968 7.75293C61.4826 7.75293 62.1466 7.87467 62.689 8.11816C63.2313 8.35612 63.6436 8.70475 63.9258 9.16406C64.208 9.61784 64.3491 10.1629 64.3491 10.7993V17H62.3071V15.7549H62.166C62 16.0426 61.7842 16.2917 61.5186 16.502C61.2585 16.7122 60.9596 16.8727 60.6221 16.9834C60.2845 17.0941 59.9137 17.1494 59.5098 17.1494ZM70.7241 17.1826C69.811 17.1826 69.0308 16.9945 68.3833 16.6182C67.7358 16.2419 67.2406 15.6995 66.8975 14.9912C66.5544 14.2829 66.3828 13.4362 66.3828 12.4512V12.4346C66.3828 11.4551 66.5544 10.6167 66.8975 9.91943C67.2406 9.22217 67.7358 8.68815 68.3833 8.31738C69.0308 7.94108 69.8083 7.75293 70.7158 7.75293C71.4961 7.75293 72.1657 7.88851 72.7246 8.15967C73.2891 8.42529 73.7345 8.79606 74.061 9.27197C74.3931 9.74235 74.5978 10.293 74.6753 10.9238V10.957H72.7246L72.7163 10.9321C72.6222 10.4894 72.4064 10.127 72.0688 9.84473C71.7368 9.5625 71.2886 9.42139 70.7241 9.42139C70.2537 9.42139 69.8498 9.54036 69.5122 9.77832C69.1802 10.0163 68.9256 10.3594 68.7485 10.8076C68.5715 11.2559 68.4829 11.7982 68.4829 12.4346V12.4512C68.4829 13.0931 68.5715 13.6437 68.7485 14.103C68.9312 14.5568 69.1885 14.9054 69.5205 15.1489C69.8525 15.3869 70.2537 15.5059 70.7241 15.5059C71.2609 15.5059 71.6925 15.3841 72.019 15.1406C72.3511 14.8971 72.5807 14.5374 72.708 14.0615L72.7246 14.0283L74.667 14.02L74.6587 14.0947C74.5591 14.709 74.3433 15.2485 74.0112 15.7134C73.6847 16.1782 73.2476 16.5407 72.6997 16.8008C72.1519 17.0553 71.4933 17.1826 70.7241 17.1826ZM80.3281 17.0415C79.2878 17.0415 78.5379 16.8506 78.0786 16.4688C77.6193 16.0869 77.3896 15.4616 77.3896 14.5928V9.5293H75.9785V7.92725H77.3896V5.70264H79.4897V7.92725H81.3989V9.5293H79.4897V14.103C79.4897 14.5513 79.5838 14.8805 79.772 15.0908C79.9657 15.2956 80.2756 15.3979 80.7017 15.3979C80.8511 15.3979 80.9728 15.3952 81.0669 15.3896C81.1665 15.3786 81.2772 15.3675 81.3989 15.3564V16.9502C81.255 16.9779 81.089 17 80.9009 17.0166C80.7183 17.0332 80.5273 17.0415 80.3281 17.0415ZM83.4907 17V7.92725H85.5493V17H83.4907ZM84.5283 6.4082C84.1908 6.4082 83.9002 6.28923 83.6567 6.05127C83.4132 5.81331 83.2915 5.52832 83.2915 5.19629C83.2915 4.85319 83.4132 4.56543 83.6567 4.33301C83.9002 4.09505 84.1908 3.97607 84.5283 3.97607C84.8659 3.97607 85.1536 4.09505 85.3916 4.33301C85.6351 4.56543 85.7568 4.85319 85.7568 5.19629C85.7568 5.52832 85.6351 5.81331 85.3916 6.05127C85.1536 6.28923 84.8659 6.4082 84.5283 6.4082ZM90.5381 17L87.3091 7.92725H89.5171L91.6089 14.9829H91.7583L93.8418 7.92725H96.0166L92.7959 17H90.5381ZM101.279 17.1826C100.377 17.1826 99.6025 16.9917 98.9551 16.6099C98.3132 16.228 97.8179 15.6857 97.4692 14.9829C97.1206 14.2801 96.9463 13.4473 96.9463 12.4844V12.4761C96.9463 11.5243 97.1178 10.6942 97.4609 9.98584C97.8096 9.27751 98.3021 8.72965 98.9385 8.34229C99.5749 7.94938 100.322 7.75293 101.18 7.75293C102.043 7.75293 102.785 7.94385 103.404 8.32568C104.03 8.70199 104.511 9.23047 104.849 9.91113C105.186 10.5918 105.355 11.3887 105.355 12.3018V12.9824H97.9839V11.5962H104.342L103.363 12.8911V12.0693C103.363 11.4661 103.271 10.9653 103.089 10.5669C102.906 10.1685 102.652 9.86963 102.325 9.67041C102.004 9.47119 101.631 9.37158 101.205 9.37158C100.778 9.37158 100.399 9.47673 100.067 9.68701C99.7409 9.89176 99.4808 10.1961 99.2871 10.6001C99.099 10.9985 99.0049 11.4883 99.0049 12.0693V12.8994C99.0049 13.4583 99.099 13.937 99.2871 14.3354C99.4753 14.7284 99.7409 15.0327 100.084 15.2485C100.433 15.4588 100.845 15.564 101.321 15.564C101.692 15.564 102.01 15.5114 102.275 15.4062C102.547 15.2956 102.765 15.1655 102.931 15.0161C103.097 14.8612 103.213 14.7145 103.28 14.5762L103.305 14.5181H105.264L105.247 14.5928C105.175 14.8861 105.042 15.1849 104.849 15.4893C104.66 15.7881 104.403 16.0675 104.077 16.3276C103.756 16.5822 103.363 16.7897 102.898 16.9502C102.433 17.1051 101.894 17.1826 101.279 17.1826Z" fill="white"/>
<path d="M81.8892 37.5757C80.9595 37.5757 80.1515 37.4318 79.4653 37.144C78.7847 36.8563 78.2479 36.4551 77.855 35.9404C77.4621 35.4258 77.2407 34.8254 77.1909 34.1392L77.1826 34.0229H79.2578L79.2661 34.106C79.2993 34.4435 79.4321 34.7368 79.6646 34.9858C79.9025 35.2349 80.2179 35.4313 80.6108 35.5752C81.0037 35.7135 81.452 35.7827 81.9556 35.7827C82.437 35.7827 82.8631 35.708 83.2339 35.5586C83.6047 35.4092 83.8952 35.2044 84.1055 34.9443C84.3158 34.6787 84.4209 34.3743 84.4209 34.0312V34.0229C84.4209 33.5913 84.2521 33.2399 83.9146 32.9688C83.577 32.6921 83.0208 32.4707 82.2461 32.3047L80.9595 32.0391C79.731 31.779 78.8372 31.3639 78.2783 30.7939C77.7249 30.2184 77.4482 29.4852 77.4482 28.5942V28.5859C77.4482 27.8721 77.6364 27.2467 78.0127 26.71C78.3945 26.1732 78.9175 25.7554 79.5815 25.4565C80.2511 25.1522 81.0176 25 81.8809 25C82.7663 25 83.5327 25.1494 84.1802 25.4482C84.8276 25.7415 85.3368 26.1427 85.7075 26.6519C86.0783 27.161 86.2858 27.7365 86.3301 28.3784L86.3384 28.4863H84.2964L84.2798 28.3867C84.23 28.0713 84.0999 27.7974 83.8896 27.5649C83.6849 27.327 83.411 27.1388 83.0679 27.0005C82.7248 26.8621 82.3236 26.793 81.8643 26.793C81.4271 26.793 81.0369 26.8621 80.6938 27.0005C80.3507 27.1333 80.0796 27.3215 79.8804 27.5649C79.6867 27.8084 79.5898 28.1017 79.5898 28.4448V28.4531C79.5898 28.8737 79.7531 29.2223 80.0796 29.499C80.4116 29.7757 80.9512 29.9915 81.6982 30.1465L82.9849 30.4204C83.826 30.5975 84.5094 30.8327 85.0352 31.126C85.5609 31.4193 85.9455 31.7845 86.189 32.2217C86.438 32.6533 86.5625 33.1735 86.5625 33.7822V33.7905C86.5625 34.5653 86.3716 35.2349 85.9897 35.7993C85.6134 36.3638 85.0739 36.8009 84.3711 37.1108C83.6738 37.4207 82.8465 37.5757 81.8892 37.5757Z" fill="white"/>
<path d="M67.7861 37.2769V25.2988H69.9277V35.4756H75.4146V37.2769H67.7861Z" fill="white"/>
<path d="M57.376 37.2769V25.2988H65.1289V27.1001H59.5176V30.3457H64.8218V32.0474H59.5176V35.4756H65.1289V37.2769H57.376Z" fill="white"/>
<path d="M49.2998 37.2769V27.1001H45.6143V25.2988H55.127V27.1001H51.4414V37.2769H49.2998Z" fill="white"/>
<path d="M38.0716 34.4365C37.1913 34.4365 36.4334 34.2455 35.7981 33.8635C35.1669 33.4773 34.679 32.9312 34.3344 32.2253C33.9897 31.5194 33.8174 30.6848 33.8174 29.7214V29.7089C33.8174 28.7414 33.9897 27.9067 34.3344 27.205C34.6832 26.499 35.1752 25.9551 35.8106 25.573C36.4501 25.191 37.2037 25 38.0716 25C38.9436 25 39.6973 25.191 40.3326 25.573C40.968 25.9551 41.458 26.499 41.8026 27.205C42.1473 27.9109 42.3196 28.7455 42.3196 29.7089V29.7214C42.3196 30.6848 42.1473 31.5194 41.8026 32.2253C41.4621 32.9312 40.9742 33.4773 40.3389 33.8635C39.7035 34.2455 38.9478 34.4365 38.0716 34.4365ZM38.0716 33.0475C38.6073 33.0475 39.0703 32.9105 39.4606 32.6364C39.8509 32.3624 40.152 31.9762 40.3638 31.4779C40.5797 30.9796 40.6877 30.3941 40.6877 29.7214V29.7089C40.6877 29.0321 40.5797 28.4466 40.3638 27.9524C40.152 27.4541 39.8509 27.07 39.4606 26.8001C39.0703 26.526 38.6073 26.389 38.0716 26.389C37.5401 26.389 37.0771 26.526 36.6826 26.8001C36.2923 27.07 35.9891 27.4541 35.7732 27.9524C35.5614 28.4466 35.4555 29.0321 35.4555 29.7089V29.7214C35.4555 30.3941 35.5594 30.9796 35.767 31.4779C35.9788 31.9762 36.2798 32.3624 36.6701 32.6364C37.0646 32.9105 37.5318 33.0475 38.0716 33.0475Z" fill="white"/>
<path d="M20.4209 37.2769V25.2988H22.5625V30.2793H28.3896V25.2988H30.5229V37.2769H28.3896V32.0806H22.5625V37.2769H20.4209Z" fill="white"/>
<rect x="33.8174" y="35.957" width="8.50195" height="1.82422" fill="#BD1515"/>
</svg>
